<svg
        width="30"
        height="29"
        viewBox="0 0 30 29"
        fill="none"
        xmlns="http://www.w3.org/2000/svg"
    >
        <path
            d="M18.0144 12.7548L13.2692 17.5144L11.4086 15.6394C11.1371 15.3679 10.7687 15.2153 10.3846 15.2153C10.0005 15.2153 9.63216 15.3679 9.36057 15.6394C9.08898 15.911 8.9364 16.2794 8.9364 16.6635C8.9364 17.0476 9.08898 17.4159 9.36057 17.6875L12.2452 20.5721C12.3793 20.7073 12.5388 20.8146 12.7145 20.8878C12.8903 20.9611 13.0788 20.9988 13.2692 20.9988C13.4596 20.9988 13.6481 20.9611 13.8239 20.8878C13.9997 20.8146 14.1592 20.7073 14.2933 20.5721L20.0625 14.8029C20.3341 14.5313 20.4867 14.163 20.4867 13.7789C20.4867 13.3948 20.3341 13.0264 20.0625 12.7548C19.7909 12.4832 19.4225 12.3307 19.0385 12.3307C18.6544 12.3307 18.286 12.4832 18.0144 12.7548ZM24.8077 5.12502H15.75L15.2885 3.68271C14.9892 2.83641 14.4342 2.10411 13.7003 1.58727C12.9664 1.07043 12.0899 0.794637 11.1923 0.798097H4.61538C3.4678 0.798097 2.36723 1.25397 1.55578 2.06542C0.744323 2.87688 0.288452 3.97745 0.288452 5.12502V23.875C0.288452 25.0226 0.744323 26.1232 1.55578 26.9346C2.36723 27.7461 3.4678 28.2019 4.61538 28.2019H24.8077C25.9553 28.2019 27.0558 27.7461 27.8673 26.9346C28.6787 26.1232 29.1346 25.0226 29.1346 23.875V9.45194C29.1346 8.30437 28.6787 7.2038 27.8673 6.39235C27.0558 5.58089 25.9553 5.12502 24.8077 5.12502ZM26.25 23.875C26.25 24.2575 26.098 24.6244 25.8275 24.8949C25.5571 25.1654 25.1902 25.3173 24.8077 25.3173H4.61538C4.23285 25.3173 3.866 25.1654 3.59551 24.8949C3.32502 24.6244 3.17307 24.2575 3.17307 23.875V5.12502C3.17307 4.7425 3.32502 4.37564 3.59551 4.10516C3.866 3.83467 4.23285 3.68271 4.61538 3.68271H11.1923C11.4947 3.68193 11.7896 3.7762 12.0355 3.9522C12.2814 4.12819 12.4657 4.37701 12.5625 4.66348L13.3413 7.02887C13.4381 7.31534 13.6224 7.56416 13.8683 7.74015C14.1142 7.91615 14.4092 8.01042 14.7115 8.00964H24.8077C25.1902 8.00964 25.5571 8.16159 25.8275 8.43208C26.098 8.70256 26.25 9.06942 26.25 9.45194V23.875Z"
            fill="black"
        />
    </svg>